<?xml version="1.0" encoding="utf-8"?>
<!-- Generator: Adobe Illustrator 13.0.0, SVG Export Plug-In . SVG Version: 6.00 Build 14948)  -->
<!DOCTYPE svg PUBLIC "-//W3C//DTD SVG 1.1//EN" "http://www.w3.org/Graphics/SVG/1.1/DTD/svg11.dtd">
<svg version="1.1" id="Layer_1" xmlns="http://www.w3.org/2000/svg" xmlns:xlink="http://www.w3.org/1999/xlink" x="0px" y="0px"
	 width="256px" height="256px" viewBox="0 0 256 256" enable-background="new 0 0 256 256" xml:space="preserve">
<rect x="-1.833" y="-1.833" fill="#0888C3" width="258.666" height="258.666"/>
<path fill="#FFFFFF" d="M153.576,86.185c-8.229-1.736-17.126-2.685-26.41-2.685c-42.158,0-76.333,19.55-76.333,43.667
	c0,20.843,25.527,38.274,59.672,42.623L153.576,86.185z"/>
<polygon fill="#FFFFFF" points="134.375,169.5 178.75,90 205.5,127.5 155,174.5 "/>
<g>
	<g>
		<path fill="#373A3C" d="M162.02,139.244c4.928-7.143,7.393-15.048,7.393-23.717c0-2.432-0.248-5.051-0.748-7.858l-26.195,46.964
			C150.576,151.516,157.094,146.383,162.02,139.244z"/>
		<path fill="#373A3C" d="M165.857,74.549c0.063-0.124,0.092-0.405,0.092-0.842c0-1.061-0.498-1.901-1.498-2.528
			c-0.186-0.124-0.793-0.483-1.824-1.077c-1.027-0.591-2.012-1.169-2.945-1.73c-0.936-0.562-1.963-1.138-3.088-1.73
			c-1.123-0.593-2.088-1.076-2.898-1.45c-0.813-0.374-1.373-0.562-1.684-0.562c-1.123,0-1.996,0.499-2.619,1.497l-5.053,9.075
			c-5.674-1.06-11.289-1.59-16.839-1.59c-16.777,0-32.245,4.241-46.403,12.724c-14.158,8.483-26.008,20.053-35.551,34.709
			c-1.248,1.936-1.872,4.087-1.872,6.457c0,2.37,0.624,4.522,1.872,6.456c5.488,8.543,11.991,16.186,19.506,22.92
			c7.516,6.738,15.732,12.131,24.651,16.188c-2.744,4.676-4.116,7.391-4.116,8.139c0,1.123,0.5,1.996,1.498,2.619
			c7.608,4.367,11.787,6.549,12.536,6.549c1.121,0,1.995-0.502,2.619-1.5l4.584-8.324c6.612-11.785,16.465-29.469,29.563-53.045
			C149.486,103.925,159.309,86.275,165.857,74.549z M95.598,162.586c-16.216-7.297-29.533-18.992-39.948-35.083
			c9.48-14.72,21.362-25.729,35.645-33.024c-3.804,6.485-5.707,13.502-5.707,21.049c0,6.674,1.527,13.002,4.584,18.991
			c3.057,5.988,7.297,10.945,12.724,14.875L95.598,162.586z M130.682,94.756c-0.871,0.873-1.936,1.31-3.182,1.31
			c-5.363,0-9.948,1.903-13.753,5.707c-3.805,3.806-5.707,8.39-5.707,13.753c0,1.249-0.438,2.309-1.311,3.183
			c-0.874,0.873-1.934,1.31-3.181,1.31c-1.248,0-2.309-0.437-3.182-1.31c-0.874-0.874-1.311-1.935-1.311-3.183
			c0-7.795,2.792-14.485,8.374-20.067s12.27-8.374,20.068-8.374c1.247,0,2.307,0.438,3.182,1.312
			c0.873,0.873,1.311,1.933,1.311,3.181C131.99,92.824,131.553,93.884,130.682,94.756z"/>
		<path fill="#373A3C" d="M209.453,121.044c-3.555-5.924-8.061-11.663-13.518-17.214c-5.455-5.551-11.148-10.321-17.074-14.313
			l-5.895,10.479c10.416,7.172,19.211,16.341,26.383,27.505c-7.545,11.726-16.949,21.3-28.205,28.72
			c-11.258,7.426-23.498,11.697-36.721,12.818l-6.923,12.35c13.847,0,26.929-2.961,39.246-8.887
			c12.318-5.924,23.156-14.25,32.512-24.979c4.365-5.053,7.764-9.574,10.197-13.566c1.248-2.121,1.871-4.275,1.871-6.456
			C211.324,125.319,210.701,123.167,209.453,121.044z"/>
	</g>
</g>
</svg>
